<svg xmlns="http://www.w3.org/2000/svg" viewBox="0 0 696.61 57.91"><defs><style>.cls-1{fill:#fff;}</style></defs><title>lieux</title><g id="Calque_2" data-name="Calque 2"><g id="logo_fdv"><path class="cls-1" d="M7.17,4a16.26,16.26,0,0,1,1.5-1.12,11,11,0,0,1,3.89-.55h.28c1.49,0,3.34.92,5.57,2.78a10.8,10.8,0,0,1,.66,1.36,15.69,15.69,0,0,1,1.11,1.7,13.78,13.78,0,0,1,2.09,7.94v2.09a6.94,6.94,0,0,1-1.95,5.29c0,.27-.83,1.16-2.5,2.64a8.17,8.17,0,0,1-2.23,1.25c.91,0,2.31.75,4.21,2.23a10.2,10.2,0,0,1,2.72,3.9,22,22,0,0,1,2.19,9.05,14.25,14.25,0,0,1-2.65,7.79c-.18.19-.65.6-1.39,1.25q-2.4,1.95-3.06,2c-.77.49-1.53.95-2.3,1.39H11.14a11,11,0,0,1-4.6-1.39C5.13,55,4.06,55.68,3.34,55.68a7.78,7.78,0,0,1-2.23-1,2,2,0,0,1-.69-1.53Q0,40.82,0,34.8A9.17,9.17,0,0,0,.28,33V24.78a39.4,39.4,0,0,1,.59-6.86v-.1Q1.71,12,2,6.4q.39-4.17,2.37-4.17h.56A3.23,3.23,0,0,1,7.17,4ZM8.6,7.69l.24,1.78c.18,1.55.35,2.94.49,4.17V18.1c0,.11.09.86.27,2.22v5.43l1,.14h.28q2.4,0,4.17-4.17a5.2,5.2,0,0,0,.42-2.65V12.25A6.69,6.69,0,0,0,14,8.42c-.35-.46-.72-1-1.12-1.6a3.63,3.63,0,0,1-1.11-1A3.79,3.79,0,0,0,8.6,7.69Zm1,21.82v3.62l-1,8.49v7a4.25,4.25,0,0,0,2.65,1.25c1.46,0,2.73-1.25,3.82-3.61a16.17,16.17,0,0,0,1.67-4.74V36.33a7.49,7.49,0,0,0-2.19-4.49,4.68,4.68,0,0,0-1.88-1.49A8.76,8.76,0,0,0,9.6,29.51Z"/><path class="cls-1" d="M39.74,2.23h2.37c3.46,0,6,1,7.52,2.92A3.44,3.44,0,0,1,51.16,7c1.3,1.11,2,1.86,2,2.23a34.19,34.19,0,0,1,1.67,5.15l1.11,5.57c.07,2,.1,4,.1,5.84Q56,45.28,51.09,51q-4.53,4.66-9,4.66a7.51,7.51,0,0,1-4.18-1.11q-4.2-2-6.47-7.66c-1.11-1.95-1.79-5.26-2-9.95-.07-1.58-.1-3.06-.1-4.46a47.6,47.6,0,0,1,.45-7V22.83A19.7,19.7,0,0,1,31.11,17a14.19,14.19,0,0,1,1.53-6.54,12.72,12.72,0,0,1,1.4-4C36.56,3.62,38.47,2.23,39.74,2.23Zm-.42,24.91V38l1.12,5.7a11.2,11.2,0,0,1,1.25,2.65q2.48,2.64,3.9,2.78,5.32,0,5.43-24.43V20.15c-.28-3.81-.7-6.25-1.26-7.34-.32-.79-.69-1.91-1.11-3.34a7,7,0,0,0-2.78-2.65H44.48a5.36,5.36,0,0,0-2.23,1.91,19,19,0,0,0-1.39,7c-.38.56-.7,3.39-1,8.49A13.15,13.15,0,0,0,39.32,27.14Z"/><path class="cls-1" d="M71,15.63c-.07,1.62-.13,3.7-.18,6.22-.16,0-.25,1.49-.27,4.46V39.53q0,2.16,1.81,8.08l1.67,2.64,1.39.32.59-.18a17.07,17.07,0,0,1,1.29-1.18,15.39,15.39,0,0,0,1.46-6.75l.21-1a58.42,58.42,0,0,1,.38-7.07c-.09-1-.14-1.76-.14-2.36l-.31-8.43a15.14,15.14,0,0,1,.14-2.19V7.1c.32-1.86,1.2-2.78,2.64-2.78l.42.13q2.12.18,2.12,6.13a65.59,65.59,0,0,0,.28,7.1c0,.44-.06,1.53-.17,3.27Q84,24.35,83.94,32a46.31,46.31,0,0,0-1,8.21.82.82,0,0,0-.1.28A12.79,12.79,0,0,1,82,46c0,.37-.09.76-.11,1.18a27.47,27.47,0,0,0-1.25,3.48,7.81,7.81,0,0,1-3.2,3.76,16.28,16.28,0,0,1-6.27,1H71a6.87,6.87,0,0,1-5.29-2.23q-3.33-6.22-3.34-10.57a31.51,31.51,0,0,0-.55-5.43V19.63a9.79,9.79,0,0,1-.11-1.53L62.4,12c.3,0,.58-1.2.83-3.62.7-3.9,2.32-5.84,4.88-5.84q2.33,0,2.78,4c.25,1.16.49,2.55.69,4.18.1,0,.14.18.14.56v1.25C71.47,13.57,71.24,14.6,71,15.63Z"/><path class="cls-1" d="M108.51,19.45a2,2,0,0,1-.42,0,1.84,1.84,0,0,1-1.67-1.95A14.77,14.77,0,0,1,106.7,16V14.2q0-4.69-2.09-6.72a3.74,3.74,0,0,0-1.46-.24h-.28c0,.18-.51.79-1.53,1.81-.46.51-.84,2.5-1.11,6a22.3,22.3,0,0,0-.56,4.32v3.9c-.19,2.73-.28,4.22-.28,4.45v6.68Q100,44.19,101.71,46a14.31,14.31,0,0,0,2.13,2h.28A3.65,3.65,0,0,0,107,47q2-4.38,2-6.47.34-4.18,2.78-4.18h.21a1.5,1.5,0,0,1,.94.38,1.75,1.75,0,0,1,.73,1.57,20.73,20.73,0,0,1-1.39,6.13c-.4.69-.79,1.43-1.19,2.22a7.42,7.42,0,0,1-.76,1.57c-.28.63-.56,1.26-.84,1.91q-4.09,4.19-5.84,4.18a9.78,9.78,0,0,0-2.23.28,8.11,8.11,0,0,1-7.52-4.32A4.26,4.26,0,0,1,93,48.58a9.09,9.09,0,0,1-1.39-3.34,43.27,43.27,0,0,1-1.12-8.63c-.09-1.72-.14-3.25-.14-4.59V18.93a65.85,65.85,0,0,0,1-6.54q2.54-6.83,3.89-6.82A5.8,5.8,0,0,0,97.58,4a5.07,5.07,0,0,1,2-.7h2.23a13.48,13.48,0,0,1,2.78.56,1,1,0,0,1,.56-.14,7.59,7.59,0,0,1,4,2.92,8.65,8.65,0,0,0,1.12,2.51,14.07,14.07,0,0,1,.83,3.76v.83q0,4.7-1.39,5.57c-.07,0-.35,0-.83.14A1.34,1.34,0,0,1,108.51,19.45Z"/><path class="cls-1" d="M135.76,41.62l-.28-7.24q0-2.19,0-3.93L127.72,32v2.5a71.57,71.57,0,0,0-.77,10.3c-.18,1.26-.28,2-.28,2.37v3.2q-.27,2.09-3.2,6a2.65,2.65,0,0,1-1.39.41h-.14c-1.14,0-2-.92-2.5-2.78-.47,0-.84-1.34-1.12-4V43.43a27.72,27.72,0,0,1-.41-3.48V34.8q0-3.48.13-9.88a3.4,3.4,0,0,0,.28-1.53V12.49a2.73,2.73,0,0,1-.1-.8,49.72,49.72,0,0,0,1-7.1l1.26-3.34A2.34,2.34,0,0,1,122.53,0h.14c1.07,0,2.14.7,3.2,2.09.47,0,.93.79,1.4,2.37.21,0,.48,1.11.83,3.34a34.36,34.36,0,0,1-.17,3.79v.52c0,3.37-.08,7.93-.25,13.71,0,.33,0,1.05,0,2.16a66,66,0,0,0,7.79-1.32c0-1,0-1.65,0-2q.45-5.46.45-9V12.74l-.1-.21c.09-1.09.14-1.88.14-2.37V2.37A1.83,1.83,0,0,1,137.71.42a5.46,5.46,0,0,1,4.45,2.23c1.58,3.59,2.37,5.73,2.37,6.4a22.48,22.48,0,0,1,.42,2.64v2.23q.24,2.47.52,5.71V35.22a31.79,31.79,0,0,1-.52,4.91,10.32,10.32,0,0,1,.13,1.77v2.78q.18,10.31.84,10.31l.14.83c0,.93-.88,1.62-2.65,2.09h-1.25c-2.69-.74-4-1.49-4-2.23A10.89,10.89,0,0,1,136,50.39a21.7,21.7,0,0,1-.28-2.36Z"/><path class="cls-1" d="M160.43,3.2h3c1.65,0,3.69,0,6.12-.14a1.86,1.86,0,0,1,1.54,1.81v0a2.69,2.69,0,0,1,.17.8c-.33,1.11-.88,1.67-1.67,1.67-4.66-.37-7.66-.56-9-.56l.73,4.87q0,2.58.28,9.75l.84,5.29h2.78a22.91,22.91,0,0,0,3.38-.56h.83c1.3.14,2,.74,2,1.81a1.4,1.4,0,0,1-.24.83,1.8,1.8,0,0,1-1.88,1.4h-2.93c-.88.07-2.13.11-3.76.14V31c.19.91.28,1.42.28,1.53V46.63a25.37,25.37,0,0,0-.69,3.76c2.66,0,5.51-.23,8.52-.56a2,2,0,0,1,1.53,2.09,1.54,1.54,0,0,1-.17.73v.25c0,1-.93,1.71-2.78,2.08q-2.87,0-13-.13-2.92,0-2.92-3.07v-6.4l.55-3.76V36.89a7.68,7.68,0,0,1-.41-2.09V27.28c-.19-3.31-.28-5.17-.28-5.56V8.77a8.4,8.4,0,0,1,.31-2.47A2.8,2.8,0,0,1,153,4.73a2.18,2.18,0,0,1,2.37-1.81c2,.1,3.57.14,4.59.14Z"/><path class="cls-1" d="M178.42,16.91V4.73a1.72,1.72,0,0,1,2-2q1.11,0,3.06,3.07a19.26,19.26,0,0,1,1.81,3.34q2.5,3.86,2.51,5.43,3.9,8.1,3.9,10.16.58,0,1.53,4.59c.28.07.74,1.6,1.39,4.59.37.49.7,2.16,1,5h.14a17.35,17.35,0,0,1,1.26-5.85,9.13,9.13,0,0,1,1-2.92A7.86,7.86,0,0,1,199,27.14a29,29,0,0,1,2.78-7.93c.28-.91,1.39-3.64,3.34-8.21l.7-2.23q.41-1.08,1.67-5.43.9-1.11,3.48-1.11c.55,0,1.48.65,2.78,1.95.74.85,1.11,2.9,1.11,6.12.1,0,.14.7.14,2.09V45.94c.19,2.25.28,3.5.28,3.76v1.94a7,7,0,0,1-1,2.93,4.57,4.57,0,0,1-3.2,1.11h-.28q-1.89,0-3.48-3.9a15.44,15.44,0,0,1-1-4,21.34,21.34,0,0,1-.69-3.9v-16A16.45,16.45,0,0,1,206,25.2a16.19,16.19,0,0,1-.7-5h-.14A43.44,43.44,0,0,0,202.09,29a18.42,18.42,0,0,0-1,3.9L199.86,39l-.7,4a13.72,13.72,0,0,1-1,4.6q-1.11,5.56-2.23,5.56c0,.21-.42.35-1.25.42q-1.53,0-2.78-3.48-1.55-1.66-5-11A43.77,43.77,0,0,1,184,30.49q-.56-.78-2-6.13h-.14V36.89q0,.59-.27,3.06c0,4.46-.1,8.72-.28,12.81a1.42,1.42,0,0,1,.14.69A1.86,1.86,0,0,1,179.68,55h-.07a1.93,1.93,0,0,1-1.29.42c-1.67-.32-2.51-1.16-2.51-2.5q0-.84,1.4-15.87l-.14-.28q.24-2.74.55-10.58c.09,0,.23-.6.42-1.81v-5C178.18,18.42,178.31,17.61,178.42,16.91Z"/><path class="cls-1" d="M234.14,1.84a14.4,14.4,0,0,1,2.71,2.41q3.21,5.52,3.21,6.68,1,1.8,2.08,11.69a10.05,10.05,0,0,0,.56,2.65A70.56,70.56,0,0,0,244,34.59c.3,3.83.61,6.67.91,8.53a3.94,3.94,0,0,1,.52,2.19,72.47,72.47,0,0,1,1.39,7.52,6.3,6.3,0,0,1,.84,2.09c0,1-1.12,1.76-3.34,2.22h-.42a3.57,3.57,0,0,1-3.2-2.22q-1.26-.84-3.07-7.1a28.87,28.87,0,0,1-.83-4.18v-.73c-.21-1-.45-2.3-.73-3.76a3,3,0,0,1-.42,0c-3,.07-5.47.11-7.52.13a116,116,0,0,1-1.49,13.92,3.28,3.28,0,0,1-2.65,1.54c-1.67,0-2.5-.7-2.5-2.09v-.42a23.13,23.13,0,0,0,.73-2.92c0-.26.06-.52.1-.8v-.18s0,0,0-.07c.27-2.15.72-5.24,1.32-9.25l2-15c.18,0,.28-.23.28-.69v-1q.27-2.16.69-4.8l.11,0a65.86,65.86,0,0,0,1.6-8.87c.32-2.25.69-3.5,1.11-3.76a2.3,2.3,0,0,1-.28-1c0-2,.61-3.09,1.81-3.2A5.88,5.88,0,0,1,234.14,1.84Zm-3.69,16.4h.07c-.09.74-.21,1.55-.35,2.43a60.09,60.09,0,0,0-1.11,7.52,25.88,25.88,0,0,0-.84,7.38v.27c2.9,0,5.22-.05,7-.17a23.87,23.87,0,0,1-.41-4.56q-1.54-8.17-2.79-17.4c-.11,0-.28-.46-.49-1.39-.13,1.18-.24,2.44-.31,3.76A13.84,13.84,0,0,0,230.45,18.24Z"/><path class="cls-1" d="M254.43,2.92c.74.07,1.11.17,1.11.28l.28-.14h1c1.21,0,2,.88,2.51,2.65.35,0,.63,1.06.83,3.2v34.8q0,7-1,7c0,2.27-.83,3.57-2.51,3.9h-.55a.12.12,0,0,1-.14-.14,2.83,2.83,0,0,1-1.53.55h-.14q-2.47,0-2.92-4.45a11.08,11.08,0,0,0-.28-2.37v-25c.28-1.77.51-2.65.69-2.65-.09-1.25-.14-2.18-.14-2.78V9.74q1-6.54,1.81-6.54A2.34,2.34,0,0,1,254.43,2.92Z"/><path class="cls-1" d="M289.61,2.19a3.24,3.24,0,0,1,3.31,3.2l.45,2.37c.25,1.67.49,4.22.69,7.66V52.51a2.48,2.48,0,0,1-1.11,2,1.69,1.69,0,0,1-1.81,1.26h-2.09c-1.06-.1-2.63-1.33-4.69-3.69a28.93,28.93,0,0,1-3.66-7.38q-.93-1.66-3.62-8.21a11.36,11.36,0,0,1-1.39-3.07c-.23-.2-.7-1.95-1.39-5.22-.21,0-.4-.39-.56-1.11h-.14v.14q.13,17.26.14,25.26v.28a1.72,1.72,0,0,1-1.95,2c-2.22,0-3.34-1-3.34-3.06-.09-1-.14-2.27-.14-3.9V6.09c0-1.72,1.12-2.69,3.34-2.92h.28q1.71,0,4.87,7.51a17.07,17.07,0,0,1,1.81,4.74c.26,0,.44.74.56,2.22a58.23,58.23,0,0,1,2.09,7.52q1.53,4.66,2.78,7.66c.54,1.9,1.37,4.38,2.51,7.44h.28q-.31-3.16-.35-7.65v-22Q286.48,2.37,289.61,2.19Z"/><path class="cls-1" d="M309.69,3.2h3c1.65,0,3.69,0,6.12-.14a1.86,1.86,0,0,1,1.53,1.81v0a2.41,2.41,0,0,1,.18.8c-.33,1.11-.88,1.67-1.67,1.67q-7-.56-9-.56l.73,4.87q0,2.58.28,9.75l.83,5.29h2.79a22.54,22.54,0,0,0,3.37-.56h.84c1.3.14,1.95.74,1.95,1.81a1.34,1.34,0,0,1-.25.83,1.78,1.78,0,0,1-1.87,1.4h-2.93c-.88.07-2.13.11-3.76.14V31c.19.91.28,1.42.28,1.53V46.63a24.13,24.13,0,0,0-.69,3.76c2.66,0,5.51-.23,8.52-.56a2,2,0,0,1,1.53,2.09,1.66,1.66,0,0,1-.17.73v.25c0,1-.93,1.71-2.78,2.08q-2.87,0-12.95-.13-2.93,0-2.92-3.07v-6.4l.55-3.76V36.89a7.39,7.39,0,0,1-.42-2.09V27.28c-.18-3.31-.27-5.17-.27-5.56V8.77a8.4,8.4,0,0,1,.31-2.47,2.8,2.8,0,0,1-.56-1.57,2.18,2.18,0,0,1,2.37-1.81c2,.1,3.57.14,4.59.14Z"/><path class="cls-1" d="M354.7,13a16.73,16.73,0,0,1,5,2.64q6.85,4,7.52,4,8.49,5.57,9.19,5.57a2.76,2.76,0,0,1,.55,1.67c0,.78-1,1.67-2.92,2.64l-7.93,5.29c-3.07,3.32-5.16,5.17-6.27,5.57L357.35,42c0,.16-1,.67-2.93,1.53a3,3,0,0,1-2.22,1.39c-1.21,0-1.81-1-1.81-3.06v-.56q0-2,4-3.06l2.65-1.67A7.94,7.94,0,0,0,361,34.45a10,10,0,0,0,3.76-4c.12,0,.58-.47,1.4-1.4a34.93,34.93,0,0,1-5-3.2,29.65,29.65,0,0,1-6-4.31,17.41,17.41,0,0,0-3.34-2,4.12,4.12,0,0,1-.42-1.26,20.67,20.67,0,0,0,1.11-4A2.93,2.93,0,0,1,354.7,13Z"/><path class="cls-1" d="M400.11,16.91V4.73a1.72,1.72,0,0,1,1.95-2q1.11,0,3.06,3.07a19.26,19.26,0,0,1,1.81,3.34q2.51,3.86,2.51,5.43,3.9,8.1,3.9,10.16.59,0,1.53,4.59c.27.07.74,1.6,1.39,4.59.37.49.69,2.16,1,5h.14a17.35,17.35,0,0,1,1.26-5.85,9.13,9.13,0,0,1,1-2.92,8,8,0,0,1,1.11-3.07,29.38,29.38,0,0,1,2.79-7.93c.28-.91,1.39-3.64,3.34-8.21l.69-2.23q.42-1.08,1.67-5.43.92-1.11,3.48-1.11.84,0,2.79,1.95c.74.85,1.11,2.9,1.11,6.12a6.1,6.1,0,0,1,.14,2.09V45.94c.19,2.25.28,3.5.28,3.76v1.94a7.05,7.05,0,0,1-1,2.93,4.55,4.55,0,0,1-3.2,1.11h-.27q-1.89,0-3.49-3.9a15.66,15.66,0,0,1-1-4,21.87,21.87,0,0,1-.7-3.9v-16a17.7,17.7,0,0,1,.28-2.64,16.51,16.51,0,0,1-.69-5h-.14A43.44,43.44,0,0,0,423.78,29a18.42,18.42,0,0,0-1,3.9L421.55,39l-.7,4a13.72,13.72,0,0,1-1,4.6c-.74,3.71-1.49,5.56-2.23,5.56,0,.21-.42.35-1.25.42q-1.53,0-2.79-3.48-1.53-1.66-5-11a43.12,43.12,0,0,1-2.92-8.63q-.56-.78-1.95-6.13h-.14V36.89c0,.39-.09,1.41-.28,3.06,0,4.46-.09,8.72-.28,12.81a1.32,1.32,0,0,1,.14.69A1.84,1.84,0,0,1,401.36,55h-.07a1.88,1.88,0,0,1-1.28.42c-1.67-.32-2.51-1.16-2.51-2.5q0-.84,1.39-15.87l-.14-.28c.17-1.83.35-5.36.56-10.58.09,0,.23-.6.42-1.81v-5C399.87,18.42,400,17.61,400.11,16.91Z"/><path class="cls-1" d="M453.29,2.23h2.36q5.19,0,7.52,2.92A3.36,3.36,0,0,1,464.7,7c1.3,1.11,1.95,1.86,1.95,2.23a34.19,34.19,0,0,1,1.67,5.15l1.11,5.57c.07,2,.11,4,.11,5.84q0,19.53-4.91,25.27-4.51,4.66-9,4.66a7.47,7.47,0,0,1-4.17-1.11q-4.22-2-6.48-7.66c-1.11-1.95-1.78-5.26-2-9.95-.07-1.58-.11-3.06-.11-4.46a47.6,47.6,0,0,1,.45-7V22.83A19.47,19.47,0,0,1,444.66,17a14.19,14.19,0,0,1,1.53-6.54,12.74,12.74,0,0,1,1.39-4Q451.38,2.23,453.29,2.23Zm-.42,24.91V38l1.11,5.7a10.49,10.49,0,0,1,1.26,2.65q2.46,2.64,3.89,2.78,5.33,0,5.43-24.43V20.15c-.28-3.81-.69-6.25-1.25-7.34a32.22,32.22,0,0,1-1.11-3.34,7.1,7.1,0,0,0-2.79-2.65H458a5.36,5.36,0,0,0-2.23,1.91,19,19,0,0,0-1.39,7c-.37.56-.7,3.39-1,8.49A12.58,12.58,0,0,0,452.87,27.14Z"/><path class="cls-1" d="M497.76,2.19a3.23,3.23,0,0,1,3.31,3.2l.45,2.37q.39,2.51.7,7.66V52.51a2.46,2.46,0,0,1-1.12,2,1.69,1.69,0,0,1-1.81,1.26h-2.08q-1.6-.15-4.7-3.69a29.26,29.26,0,0,1-3.66-7.38q-.93-1.66-3.62-8.21a11.36,11.36,0,0,1-1.39-3.07c-.23-.2-.69-1.95-1.39-5.22-.21,0-.39-.39-.56-1.11h-.14v.14q.15,17.26.14,25.26v.28a1.72,1.72,0,0,1-1.95,2c-2.22,0-3.34-1-3.34-3.06-.09-1-.14-2.27-.14-3.9V6.09q0-2.58,3.35-2.92h.27q1.71,0,4.88,7.51a17.72,17.72,0,0,1,1.81,4.74c.25,0,.44.74.55,2.22a58.23,58.23,0,0,1,2.09,7.52q1.53,4.66,2.78,7.66c.54,1.9,1.37,4.38,2.51,7.44H495q-.32-3.16-.35-7.65v-22Q494.63,2.37,497.76,2.19Z"/><path class="cls-1" d="M529.47,3.55c1.2.21,1.8.81,1.8,1.81C531,7.12,530.42,8,529.6,8c0,.1-.18.14-.55.14h-4a7.46,7.46,0,0,1-2-.28V19.42q-.42,4.32-.69,10.3v2.92l-.7,7.8a63.08,63.08,0,0,0-1,8.21,10,10,0,0,0-.7,3.06c-1.07,1.77-1.9,2.65-2.51,2.65h-.14q-3.2,0-3.2-3.62v-1a11.76,11.76,0,0,0,.42-2.36V8.28a20.61,20.61,0,0,1-2.09.14h-3.89c-1.19,0-2-.93-2.51-2.78A1.83,1.83,0,0,1,508,4h1.81a31,31,0,0,1,5.15.28,22.82,22.82,0,0,0,2.23-.56Q526,3.56,529.47,3.55Z"/><path class="cls-1" d="M541.09,3.06H543a28.57,28.57,0,0,0,4.31,1c.88,0,1.91.65,3.07,2a14.2,14.2,0,0,1,2.22,6V16.7c-.16,2.14-.86,3.21-2.08,3.21h-.14a1.87,1.87,0,0,1-1.67-2.09,7.11,7.11,0,0,0,.41-2.09v-3.2c-.53-3.44-1.64-5.15-3.34-5.15l-.69-.14a10.67,10.67,0,0,0-2,1.39,25.81,25.81,0,0,0-1,5.43,27.58,27.58,0,0,0,2.09,7.1,25.78,25.78,0,0,0,1.81,3.06c1.18,2.21,2.67,5.31,4.46,9.33a15.3,15.3,0,0,1,1.66,5.84V45.8c0,1.55-.74,3.55-2.22,6a26.45,26.45,0,0,1-3.48,2.51,7.57,7.57,0,0,1-3.06.56h-1a15.09,15.09,0,0,1-8.21-2.65,15.62,15.62,0,0,1-2.92-5.57A13.91,13.91,0,0,1,530.09,40c-.09-1.25-.14-2.18-.14-2.78a1.86,1.86,0,0,1,1.81-1.53c1.21,0,1.81,1.3,1.81,3.89V42A27.25,27.25,0,0,0,535,46.49q1,2.79,3.35,2.79h.55q2.58,0,4.74-4v-2a40.15,40.15,0,0,0-1.54-7.65,44.16,44.16,0,0,0-3.89-7.24,23.4,23.4,0,0,1-4.18-9V17.12c-.19-1.58-.28-2.46-.28-2.64V12.81c.65-3.34,1.16-5,1.53-5C537.59,4.64,539.53,3.06,541.09,3.06Z"/><path class="cls-1" d="M567.68,2.23H570q5.19,0,7.52,2.92A3.36,3.36,0,0,1,579.09,7c1.3,1.11,1.95,1.86,1.95,2.23a34.19,34.19,0,0,1,1.67,5.15l1.11,5.57c.07,2,.11,4,.11,5.84q0,19.53-4.91,25.27-4.51,4.66-9,4.66a7.47,7.47,0,0,1-4.17-1.11q-4.22-2-6.48-7.66c-1.11-1.95-1.78-5.26-2-9.95-.07-1.58-.11-3.06-.11-4.46a47.6,47.6,0,0,1,.45-7V22.83A19.47,19.47,0,0,1,559.05,17a14.19,14.19,0,0,1,1.53-6.54,12.74,12.74,0,0,1,1.39-4Q565.77,2.23,567.68,2.23Zm-.42,24.91V38l1.11,5.7a10.49,10.49,0,0,1,1.26,2.65q2.46,2.64,3.89,2.78,5.33,0,5.43-24.43V20.15c-.28-3.81-.69-6.25-1.25-7.34a32.22,32.22,0,0,1-1.11-3.34,7.1,7.1,0,0,0-2.79-2.65h-1.39a5.36,5.36,0,0,0-2.23,1.91,19,19,0,0,0-1.39,7q-.56.84-1,8.49A12.58,12.58,0,0,0,567.26,27.14Z"/><path class="cls-1" d="M609.68,5.88c.21.16.42.34.63.52a6.46,6.46,0,0,0,1.25,1.26,9.4,9.4,0,0,1,1.81,4.17,18.6,18.6,0,0,1,1.11,6V20.6q0,5.29-2.5,8.21a12,12,0,0,1-5.57,4.7,23.09,23.09,0,0,1,3.9,4.77,44.81,44.81,0,0,0,2,5.43c.42,1.37.86,2.85,1.32,4.45,1.69,3,3,4.57,4,4.88a2.7,2.7,0,0,1,.56,1.39c0,1.2-1.3,1.81-3.9,1.81h-1q-5.29,0-7-5.29a37.1,37.1,0,0,1-1.54-6.4,57.62,57.62,0,0,0-2.64-6.83v-.17c-.49-.86-.82-1.31-1-1.36,0-.28-.09-.42-.28-.42a3.71,3.71,0,0,1-1,.14v1Q599,45.38,599,49.7v.41a2,2,0,0,1-.1.59v.11q0,3.06-1.95,4.31l-1,.14h-.28a3,3,0,0,1-3-2.19,2.44,2.44,0,0,1-.49-1.56V49.42L592,48a5.3,5.3,0,0,1-.25-1.05V45.8c0-.81-.1-1.78-.17-2.89s-.1-1.73-.1-1.85V34.28a2.31,2.31,0,0,1-.25-1.15,23,23,0,0,1-.42-3.62c.19-1.78.28-3,.28-3.76a44.15,44.15,0,0,1,.42-7l-.42-3.62v-.94h0a2.15,2.15,0,0,1,0-.45V10.72l1-4.73c1.06-2.88,2.32-4.32,3.76-4.32h.27c1.49.3,2.23.91,2.23,1.81h.14a6.74,6.74,0,0,1,4.18-1.39h.41a11,11,0,0,1,4.74,1.67A13.61,13.61,0,0,1,609.68,5.88Zm-4.8,3.66-.07-.14a7,7,0,0,1-.31-1.33A2.74,2.74,0,0,0,601.71,6a7.17,7.17,0,0,0-2.4,1.67q.29,2.85.45,7.51.53,5.48.53,13.75c-.1,1.07-.14,2.24-.14,3.51a6.13,6.13,0,0,0,3.44-2,10.26,10.26,0,0,0,1.81-3.21,19.46,19.46,0,0,0,.38-4.14c.05-2,.07-3.84.07-5.53V16.15c0-.14-.09-1.25-.27-3.34V11.28A14.84,14.84,0,0,0,605,9.85C605,9.76,604.93,9.65,604.88,9.54Z"/><path class="cls-1" d="M629.59,3.2h3c1.64,0,3.68,0,6.12-.14a1.86,1.86,0,0,1,1.53,1.81v0a2.69,2.69,0,0,1,.18.8c-.33,1.11-.89,1.67-1.67,1.67q-7-.56-9-.56l.73,4.87q0,2.58.28,9.75l.83,5.29h2.79a22.54,22.54,0,0,0,3.37-.56h.84c1.3.14,1.95.74,1.95,1.81a1.41,1.41,0,0,1-.25.83,1.79,1.79,0,0,1-1.88,1.4h-2.92c-.88.07-2.14.11-3.76.14V31c.19.91.28,1.42.28,1.53V46.63a25.47,25.47,0,0,0-.7,3.76q4-.06,8.53-.56a2,2,0,0,1,1.53,2.09,1.66,1.66,0,0,1-.17.73v.25c0,1-.93,1.71-2.79,2.08q-2.85,0-12.94-.13-2.93,0-2.93-3.07v-6.4l.56-3.76V36.89a7.39,7.39,0,0,1-.42-2.09V27.28c-.18-3.31-.28-5.17-.28-5.56V8.77a8.37,8.37,0,0,1,.32-2.47,2.8,2.8,0,0,1-.56-1.57,2.18,2.18,0,0,1,2.37-1.81c2,.1,3.57.14,4.59.14Z"/><path class="cls-1" d="M656.84,1.84a14.4,14.4,0,0,1,2.71,2.41c2.14,3.68,3.2,5.91,3.2,6.68q1.05,1.8,2.09,11.69a10.05,10.05,0,0,0,.56,2.65,68.92,68.92,0,0,0,1.25,9.32q.45,5.74.91,8.53a4,4,0,0,1,.52,2.19,72.47,72.47,0,0,1,1.39,7.52,6.3,6.3,0,0,1,.84,2.09c0,1-1.12,1.76-3.35,2.22h-.41a3.58,3.58,0,0,1-3.21-2.22q-1.25-.84-3.06-7.1a27.43,27.43,0,0,1-.83-4.18v-.73c-.21-1-.46-2.3-.73-3.76a3,3,0,0,1-.42,0q-4.45.11-7.52.13a116,116,0,0,1-1.49,13.92,3.28,3.28,0,0,1-2.65,1.54c-1.67,0-2.51-.7-2.51-2.09v-.42a21.8,21.8,0,0,0,.74-2.92,7.94,7.94,0,0,1,.1-.8v-.18a.13.13,0,0,1,0-.07c.28-2.15.72-5.24,1.33-9.25l1.95-15q.27,0,.27-.69v-1c.19-1.44.42-3,.7-4.8l.1,0A64.6,64.6,0,0,0,651,8.7c.32-2.25.69-3.5,1.11-3.76a2.16,2.16,0,0,1-.28-1c0-2,.6-3.09,1.81-3.2A5.88,5.88,0,0,1,656.84,1.84Zm-3.69,16.4h.07c-.1.74-.21,1.55-.35,2.43a60.09,60.09,0,0,0-1.11,7.52,25.88,25.88,0,0,0-.84,7.38v.27c2.9,0,5.22-.05,7-.17a23.86,23.86,0,0,1-.42-4.56q-1.53-8.17-2.78-17.4c-.12,0-.28-.46-.49-1.39-.14,1.18-.24,2.44-.31,3.76A13.84,13.84,0,0,0,653.15,18.24Z"/><path class="cls-1" d="M683.11,15.63c-.07,1.62-.13,3.7-.17,6.22-.17,0-.26,1.49-.28,4.46V39.53q0,2.16,1.81,8.08l1.67,2.64,1.39.32.59-.18a17.07,17.07,0,0,1,1.29-1.18,15.39,15.39,0,0,0,1.46-6.75l.21-1a58.42,58.42,0,0,1,.38-7.07c-.09-1-.14-1.76-.14-2.36L691,23.59a17.07,17.07,0,0,1,.14-2.19V7.1c.32-1.86,1.21-2.78,2.64-2.78a3.6,3.6,0,0,1,.42.13q2.13.18,2.13,6.13a68.92,68.92,0,0,0,.27,7.1c0,.44-.05,1.53-.17,3.27q-.32,3.4-.42,11.07a45.7,45.7,0,0,0-1,8.21.82.82,0,0,0-.11.28A12.79,12.79,0,0,1,694,46c0,.37-.08.76-.11,1.18a27.47,27.47,0,0,0-1.25,3.48,7.75,7.75,0,0,1-3.2,3.76,16.26,16.26,0,0,1-6.26,1h-.14a6.84,6.84,0,0,1-5.29-2.23q-3.35-6.22-3.34-10.57a31.63,31.63,0,0,0-.56-5.43V19.63a9.79,9.79,0,0,1-.11-1.53l.7-6.13c.3,0,.58-1.2.84-3.62.69-3.9,2.32-5.84,4.87-5.84q2.32,0,2.78,4c.26,1.16.49,2.55.7,4.18.09,0,.14.18.14.56v1.25C683.55,13.57,683.32,14.6,683.11,15.63Z"/></g></g></svg>