<svg xmlns="http://www.w3.org/2000/svg" viewBox="0 0 477.26 274.81"><defs><style>.cls-1{fill:#fff;}</style></defs><title>titre date</title><g id="Calque_2" data-name="Calque 2"><g id="logo_fdv"><path class="cls-1" d="M38.86,10.14a25.78,25.78,0,0,1,1.45,2.21q7.06,9.95,7.06,18.39.5,9.63.5,16.38v5q0,9-2,12.85,0,2.09-2.27,8.32,0,1.2-4.79,9.57-.51.14-2.77,4A66.45,66.45,0,0,0,28,94.73a30.82,30.82,0,0,1-7.56,3q0,1.06-7.31,1.26H7.56C3.86,99,2,97.84,2,95.49A4.21,4.21,0,0,1,2.52,94,15.33,15.33,0,0,1,0,85.92V68.53a14.62,14.62,0,0,1,1-5.79q.25-16.38.25-25.45V32a41,41,0,0,0,.5-5.36,5.23,5.23,0,0,1-.19-1.44A75.35,75.35,0,0,1,4.09,4.79Q4.91.5,8.38.5C8.38.21,9,0,10.14,0s2.73,1.26,4.28,3.78q4.41-3,12.35-3Q35,2.65,37.6,6.3A35.33,35.33,0,0,1,38.86,10.14ZM28.6,17.7c-.93-.8-1.7-2.33-2.33-4.6a12.09,12.09,0,0,0-5.8-3.53h-.25c-1.55,0-3.07.85-4.54,2.52A70,70,0,0,1,17.26,24.5c.08,1.6.12,3.17.12,4.73a88,88,0,0,1-.5,9.57V59q-.75,4-1,22.92c-.37,0-.88,2.78-1.51,8.32h2q4.79-.57,4.78-1.76,4.1-3.47,7.31-18.15L31.75,58a45.66,45.66,0,0,0,1-8.57V41.57q-.75-5.41-1-11.34-.77-1.64-2-10.33Z"/><path class="cls-1" d="M63,21.7c1.14.11,1.71.25,1.71.43l.42-.22h1.49c1.85,0,3.12,1.35,3.83,4.05.54,0,1,1.63,1.28,4.89V84.08q0,10.64-1.49,10.64c0,3.48-1.28,5.46-3.83,6h-.85a.19.19,0,0,1-.22-.21,4.29,4.29,0,0,1-2.34.85h-.21q-3.78,0-4.47-6.81a15.88,15.88,0,0,0-.43-3.62V52.57c.43-2.7.78-4,1.07-4-.14-1.91-.22-3.33-.22-4.25V32.13q1.54-10,2.77-10A3.39,3.39,0,0,1,63,21.7Z"/><path class="cls-1" d="M88.83,42.2V22.82c0-2.06,1-3.1,3-3.1,1.14,0,2.7,1.63,4.69,4.87a32.32,32.32,0,0,1,2.77,5.32q3.83,6.14,3.83,8.63,6,12.9,6,16.17.9,0,2.34,7.3.64.16,2.13,7.31c.57.77,1.06,3.43,1.49,8h.21a28.72,28.72,0,0,1,1.92-9.3,15.17,15.17,0,0,1,1.49-4.65,13,13,0,0,1,1.7-4.87,48.13,48.13,0,0,1,4.26-12.62q.65-2.16,5.11-13.06l1.06-3.55q.64-1.71,2.56-8.63,1.38-1.77,5.32-1.77,1.28,0,4.26,3.1,1.69,2,1.7,9.74c.14,0,.21,1.11.21,3.32V88.36q.44,5.37.43,6v3.1a11.54,11.54,0,0,1-1.49,4.65,6.81,6.81,0,0,1-4.9,1.77h-.42q-2.88,0-5.32-6.2c-.36-.45-.86-2.58-1.49-6.42a34.17,34.17,0,0,1-1.07-6.2V59.58a27.4,27.4,0,0,1,.43-4.21,27,27,0,0,1-1.07-8h-.21a70.56,70.56,0,0,0-4.68,14,29.31,29.31,0,0,0-1.49,6.2l-1.92,9.74-1.06,6.42a22.74,22.74,0,0,1-1.5,7.31q-1.69,8.85-3.4,8.85c0,.33-.64.55-1.92.67q-2.34,0-4.26-5.54-2.34-2.66-7.66-17.49a70.19,70.19,0,0,1-4.47-13.73q-.85-1.22-3-9.74h-.21V74c0,.62-.15,2.25-.43,4.87q0,10.62-.42,20.37a2.34,2.34,0,0,1,.21,1.1c-.5,1.63-1.42,2.44-2.77,2.44h-.11a2.84,2.84,0,0,1-2,.66q-3.83-.76-3.83-4,0-1.34,2.13-25.24l-.21-.44q.38-4.38.85-16.83c.14,0,.35-1,.64-2.88v-8C88.46,44.59,88.66,43.3,88.83,42.2Z"/><path class="cls-1" d="M176.55,20.65a21.43,21.43,0,0,1,4.15,3.67q4.91,8.46,4.9,10.22,1.59,2.76,3.19,17.88a15.3,15.3,0,0,0,.85,4,106.6,106.6,0,0,0,1.92,14.27q.69,8.77,1.38,13a6,6,0,0,1,.8,3.35,108.93,108.93,0,0,1,2.13,11.5,9.83,9.83,0,0,1,1.28,3.19c0,1.56-1.71,2.7-5.11,3.41h-.64q-3.09,0-4.9-3.41c-1.27-.85-2.84-4.47-4.68-10.86a43.59,43.59,0,0,1-1.28-6.38V83.45c-.32-1.6-.69-3.51-1.12-5.75a3.35,3.35,0,0,1-.63,0q-6.82.16-11.5.22A176,176,0,0,1,165,99.26a5,5,0,0,1-4,2.34q-3.84,0-3.84-3.2v-.63a34,34,0,0,0,1.12-4.48c0-.38.09-.79.16-1.22V91.8a.14.14,0,0,1,.06-.1q.63-5,2-14.16l3-23c.28,0,.42-.36.42-1.07V52c.29-2.2.64-4.64,1.07-7.34l.16.05a100.1,100.1,0,0,0,2.45-13.57q.74-5.16,1.7-5.75a3.45,3.45,0,0,1-.43-1.49c0-3.08.93-4.72,2.77-4.89A8.89,8.89,0,0,1,176.55,20.65Zm-5.64,25.06H171c-.15,1.14-.32,2.38-.54,3.73q-.37.48-1.7,11.5a39.73,39.73,0,0,0-1.28,11.28v.42c4.44,0,8-.08,10.65-.26a36.35,36.35,0,0,1-.64-7q-2.34-12.51-4.26-26.62c-.18,0-.42-.7-.74-2.12q-.33,2.71-.48,5.74A23.37,23.37,0,0,0,170.91,45.71Z"/><path class="cls-1" d="M239.41,18.21c3,.18,4.7,1.81,5.06,4.9l.69,3.61q.59,3.84,1.06,11.71V95.17a3.77,3.77,0,0,1-1.7,3,2.59,2.59,0,0,1-2.77,1.92h-3.19q-2.44-.22-7.18-5.65a44.54,44.54,0,0,1-5.59-11.28q-1.44-2.55-5.54-12.56-.58-.48-2.13-4.68-.52-.48-2.13-8c-.32,0-.6-.6-.85-1.7h-.21v.21q.21,26.4.21,38.64v.43a2.63,2.63,0,0,1-3,3c-3.4,0-5.11-1.56-5.11-4.68-.14-1.5-.21-3.48-.21-6V24.17q0-3.95,5.11-4.47h.43q2.6,0,7.45,11.5a26.64,26.64,0,0,1,2.76,7.23c.39,0,.68,1.14.86,3.41a88.46,88.46,0,0,1,3.19,11.5Q229,60.47,230.9,65q1.22,4.38,3.83,11.39h.42c-.32-3.22-.49-7.13-.53-11.7V31.14Q234.62,18.48,239.41,18.21Z"/><path class="cls-1" d="M287.16,51.92a4.6,4.6,0,0,1-.64,0A2.82,2.82,0,0,1,284,49q0-.27.42-2.34V43.88q0-7.18-3.19-10.27a5.64,5.64,0,0,0-2.24-.38h-.42c0,.29-.78,1.21-2.35,2.77-.71.78-1.27,3.83-1.7,9.16-.21.28-.5,2.48-.85,6.6v6c-.28,4.18-.43,6.45-.43,6.81V74.75q1,15,3.54,17.75A21.74,21.74,0,0,0,280,95.61h.42a5.58,5.58,0,0,0,4.37-1.6q3-6.7,3-9.89.52-6.39,4.26-6.39h.31a2.27,2.27,0,0,1,1.44.58,2.67,2.67,0,0,1,1.12,2.4,31,31,0,0,1-2.13,9.37c-.6,1.06-1.21,2.2-1.81,3.4a11.19,11.19,0,0,1-1.17,2.4c-.43,1-.85,1.93-1.28,2.92q-6.27,6.39-8.94,6.39a15.14,15.14,0,0,0-3.41.43A12.39,12.39,0,0,1,264.7,99a6.7,6.7,0,0,1-1.28-2.56q-2.13-3.78-2.13-5.11a66.05,66.05,0,0,1-1.7-13.2q-.21-3.93-.21-7v-20q.84-4,1.49-10,3.88-10.43,6-10.43c.78-.11,2-.89,3.62-2.34a7.85,7.85,0,0,1,3-1.07h3.4a20.21,20.21,0,0,1,4.26.86,1.61,1.61,0,0,1,.85-.22,11.79,11.79,0,0,1,6.18,4.47,12.66,12.66,0,0,0,1.7,3.83A22.05,22.05,0,0,1,291.1,42v1.28q0,7.18-2.13,8.52c-.11,0-.53.07-1.28.21A3.17,3.17,0,0,1,287.16,51.92Z"/><path class="cls-1" d="M331.34,79,330.91,68c0-2.23,0-4.24.06-6L319,64.34v3.83a109.33,109.33,0,0,0-1.17,15.76,35,35,0,0,0-.42,3.62v4.89q-.43,3.19-4.9,9.16a4.17,4.17,0,0,1-2.13.64h-.21q-2.61,0-3.83-4.26-1.06,0-1.71-6.18v-10a44.64,44.64,0,0,1-.63-5.32V68.6q0-5.32.21-15.12a5.32,5.32,0,0,0,.42-2.34V34.48a4.45,4.45,0,0,1-.16-1.22A76.26,76.26,0,0,0,306,22.4l1.92-5.11a3.6,3.6,0,0,1,3.19-1.91h.22q2.44,0,4.89,3.19c.71,0,1.42,1.21,2.13,3.62q.48,0,1.28,5.11a49.36,49.36,0,0,1-.27,5.8v.8q0,7.71-.37,21c0,.5,0,1.59.05,3.3a102.57,102.57,0,0,0,11.93-2c0-1.49,0-2.52,0-3.09q.69-8.36.69-13.84V34.86l-.16-.32c.14-1.67.21-2.88.21-3.62V19a2.81,2.81,0,0,1,2.56-3,8.36,8.36,0,0,1,6.81,3.4q3.62,8.25,3.62,9.79a33.93,33.93,0,0,1,.64,4v3.41c.25,2.52.51,5.42.8,8.72V69.24a47.24,47.24,0,0,1-.8,7.5,15.58,15.58,0,0,1,.21,2.72v4.25q.27,15.77,1.28,15.76l.21,1.28q0,2.13-4,3.19h-1.92c-4.11-1.14-6.17-2.27-6.17-3.41a16.68,16.68,0,0,1-3.2-8.09,35,35,0,0,1-.42-3.62Z"/><path class="cls-1" d="M371.58,18.49h4.52c2.52,0,5.65-.07,9.37-.22,1.56.5,2.34,1.42,2.34,2.77v.05a4.12,4.12,0,0,1,.27,1.23c-.5,1.7-1.35,2.55-2.56,2.55Q374.83,24,371.79,24l1.12,7.45q0,3.95.43,14.91l1.27,8.08h4.26a33.87,33.87,0,0,0,5.16-.85h1.28c2,.22,3,1.14,3,2.77a2.17,2.17,0,0,1-.37,1.28,2.74,2.74,0,0,1-2.87,2.13h-4.47c-1.35.1-3.27.17-5.75.21v1.06c.28,1.39.42,2.17.42,2.35v21.5a38.82,38.82,0,0,0-1.06,5.75q6.12-.1,13-.86a3,3,0,0,1,2.34,3.2,2.46,2.46,0,0,1-.27,1.12v.37q0,2.34-4.25,3.19-4.37,0-19.8-.21-4.47,0-4.47-4.68V83l.85-5.75V70a11.27,11.27,0,0,1-.64-3.2V55.32c-.28-5.08-.43-7.92-.43-8.52V27a12.88,12.88,0,0,1,.48-3.78,4.27,4.27,0,0,1-.85-2.39,3.32,3.32,0,0,1,3.62-2.77q4.68.21,7,.21C371.12,18.34,371.37,18.42,371.58,18.49Z"/><path class="cls-1" d="M84.47,122.3q2.55,0,3,3.74a59.35,59.35,0,0,1,.36,7.32v1.79a20.87,20.87,0,0,1,.71,4.28q.18,19.59.18,25.17a11.79,11.79,0,0,1-.35,3q.16,3.7.17,6.07v10.89a4.92,4.92,0,0,1-3.21,4.64c0,.35-.77.65-2.32.89H81.79a4,4,0,0,1-3.92-2.86q-.72,0-.9-14.81.18-11.32.18-17.85a28.81,28.81,0,0,0,.89-5.17q.18-10.53.18-13.39l-2,2.68c-.27,0-1.16,1-2.68,3a5.78,5.78,0,0,1-2.68,1.43,2.37,2.37,0,0,1-2.14-2.5c0-.86.84-1.87,2.5-3q0-.45,2.68-3.4l6.6-10.35c0-.65.9-1.19,2.68-1.6Z"/><path class="cls-1" d="M126.66,115.48q7,0,7,2.84V119q0,2.46-3.71,9-.66,0-3.07,5a24.76,24.76,0,0,0-4.59,12.69q-.66.48-1.75,5c-.37.07-.66,1.09-.88,3.06h1.75c4.82.69,7.22,1.35,7.22,2q2.3,0,6.35,4.15l3.5,7.66a9.85,9.85,0,0,1,.43,2.63V182c0,3.24-1.09,7-3.28,11.37a19.46,19.46,0,0,1-6.12,5.69c-2,2.63-4.12,3.94-6.35,3.94a2.28,2.28,0,0,1-1.09.22h-2.84a22.82,22.82,0,0,1-6.78-1.75q-3.45,0-8.1-7c-.73-2.7-1.09-4.16-1.09-4.38-.26,0-.4-.51-.44-1.53V181.1q0-6.39,2.63-20.78c.72-2.29,1.75-6.09,3.06-11.37l6.12-16.63a114.31,114.31,0,0,0,7.44-12.25Q125.09,115.48,126.66,115.48Zm-8.75,43.75a65.19,65.19,0,0,0-1.75,11.15q-.64.28-.87,7v10.5q0,1.92,3.06,6.79a9.06,9.06,0,0,0,4.38,1.09h.65q4.11-.27,5.69-12.91V178a55.41,55.41,0,0,0-2.19-11.16c-.22,0-.58-1.31-1.09-3.93a13.52,13.52,0,0,0-3.94-3.07c0-.43-.14-.65-.44-.65Z"/><path class="cls-1" d="M188.61,127l0,.31a52.93,52.93,0,0,1,2.5,14.1c.36,0,.54,1.79.54,5.36v15.53q0,1.42.18,3.75a30.5,30.5,0,0,0-.72,6.6,25.54,25.54,0,0,1-1.6,8.75q0,2.9-4.29,5.88c0,.54-1.13,1-3.39,1.43h-2.5a26.31,26.31,0,0,1-6.6-1.6c-1.55-1.19-2.32-3.16-2.32-5.89a9.81,9.81,0,0,1-.71-3.4v-7.13c.17-1.67.95-2.5,2.32-2.5a2.36,2.36,0,0,1,2.14,2.5v6.06c.44,3.46,1.1,5.18,2,5.18h1.25c.51-.86,1-4.08,1.61-9.64q.89-2.85.89-9.81V154.6c-.24-1.72-.36-2.68-.36-2.85V145q-.88-10.92-1.6-17.31a7.07,7.07,0,0,1-.36-1.87,25.89,25.89,0,0,1-.76-2.59v-.36q0-3.12,2.86-3.57h.17q4,0,8,4.82A9.25,9.25,0,0,1,188.61,127Z"/><path class="cls-1" d="M214.85,146.69c-.09,2.08-.16,4.75-.22,8q-.31,0-.36,5.71v17q0,2.76,2.32,10.35l2.14,3.39,1.79.4c.24-.06.49-.13.76-.22a20.4,20.4,0,0,1,1.65-1.52,19.64,19.64,0,0,0,1.87-8.66l.27-1.29a74.22,74.22,0,0,1,.49-9.06q-.18-1.87-.18-3l-.4-10.8a21.58,21.58,0,0,1,.18-2.81V135.76q.63-3.57,3.39-3.57l.54.18c1.81.15,2.72,2.76,2.72,7.85a84.82,84.82,0,0,0,.36,9.1c0,.57-.08,2-.23,4.2q-.41,4.36-.53,14.19-.67,2-1.25,10.53a1,1,0,0,0-.14.35c0,3.31-.41,5.66-1.16,7-.06.48-.1,1-.13,1.52a35.45,35.45,0,0,0-1.61,4.46,9.9,9.9,0,0,1-4.1,4.82,20.7,20.7,0,0,1-8,1.25h-.18a8.83,8.83,0,0,1-6.79-2.85q-4.28-8-4.28-13.57a41.15,41.15,0,0,0-.71-7V151.82a12.51,12.51,0,0,1-.14-2l.9-7.85c.38,0,.74-1.55,1.07-4.64q1.33-7.5,6.24-7.5,3,0,3.57,5.17.5,2.24.9,5.36c.11,0,.17.24.17.71v1.61C215.42,144.06,215.12,145.38,214.85,146.69Z"/><path class="cls-1" d="M246,127.19c.95.09,1.43.21,1.43.36l.36-.18H249q2.31,0,3.21,3.39c.44,0,.8,1.37,1.07,4.1v44.63c0,5.94-.42,8.92-1.25,8.92,0,2.92-1.07,4.58-3.21,5h-.72c-.12,0-.17-.06-.17-.18a3.68,3.68,0,0,1-2,.71h-.18q-3.16,0-3.74-5.71a13.46,13.46,0,0,0-.36-3V153.07c.36-2.26.65-3.39.89-3.39q-.18-2.42-.18-3.57V135.93c.86-5.59,1.64-8.38,2.32-8.38A2.9,2.9,0,0,1,246,127.19Z"/><path class="cls-1" d="M293.22,121.94c2.52.15,3.94,1.52,4.23,4.1l.58,3q.5,3.21.9,9.82v47.56a3.18,3.18,0,0,1-1.43,2.5,2.18,2.18,0,0,1-2.32,1.61H292.5c-1.37-.12-3.37-1.7-6-4.73a37.59,37.59,0,0,1-4.69-9.46q-1.2-2.15-4.64-10.53c-.33-.27-.92-1.58-1.78-3.93q-.45-.4-1.79-6.69c-.27,0-.5-.51-.71-1.43h-.18V154q.18,22.13.18,32.39v.36a2.21,2.21,0,0,1-2.5,2.5c-2.86,0-4.28-1.31-4.28-3.93-.12-1.25-.18-2.91-.18-5V126.94q0-3.3,4.28-3.75h.36c1.45,0,3.54,3.21,6.24,9.64a22.11,22.11,0,0,1,2.33,6.07c.32,0,.56.95.71,2.85a75.2,75.2,0,0,1,2.68,9.64c1.3,4,2.5,7.26,3.57,9.82q1,3.66,3.21,9.54h.36q-.4-4-.45-9.81V132.78Q289.2,122.16,293.22,121.94Z"/><path class="cls-1" d="M344.41,127.55h1.07q4.36,0,8.74,3.74,1.65.63,3.39,4.29c.66.33,1.31,2,2,5q1.25,1.83,1.25,6.42c.14,0,.26.6.35,1.79q-.18,4.59-.18,7.85v1.07q0,3.25-2.14,9.28,0,.9-2.5,5.71-1.42,3.66-6.42,8.39c-.15.63-1.58,2.41-4.29,5.36,0,.23-.71,1-2.14,2.32v.17h1.61a87.4,87.4,0,0,1,9.1.9h1.25a.16.16,0,0,1,.18.18.16.16,0,0,0,.18-.18q5.35,0,5.35,2.14v.36a2.36,2.36,0,0,1-2.5,2.14h-.89a23.64,23.64,0,0,0-6.25.71h-2.67a101.19,101.19,0,0,1-13-1.07,2.79,2.79,0,0,1-1.25-2.32v-1.43a2.63,2.63,0,0,1,1.78-2.5c1.07-.71,1.61-1.19,1.61-1.42a21.18,21.18,0,0,0,5-6.79l2.67-5.17a7.88,7.88,0,0,1,1.08-2.5,34.42,34.42,0,0,1,1.78-4.46l1.61-6.79v-9.63q-.9-6.57-.9-7.68-.21-1.83-3.57-7.32c-1-1.31-1.6-2-1.78-2h-1.61q-1.33,0-2.85,7,0,6.6-1.25,6.6a2.86,2.86,0,0,1-1.25.36c-1.13,0-1.85-.77-2.14-2.32a27.21,27.21,0,0,1,.89-8.21q.31-3,3.75-8.21a24.38,24.38,0,0,1,2.5-1.43A14.33,14.33,0,0,0,344.41,127.55Z"/><path class="cls-1" d="M386.89,122.83h3.39a11.91,11.91,0,0,1,4.82,1.25q2.5,2.82,4.1,9.28a26.72,26.72,0,0,0,1.08,6.25,37.53,37.53,0,0,0,.35,4.46v9.1q-1.25,11.39-1.6,13.21a25.29,25.29,0,0,0-.72,4.64c-.27.36-.56,2-.89,5-.18,0-.54,1.37-1.07,4.11a53.39,53.39,0,0,0-2.14,5q-3.79,5.35-7.68,5.36H384q-4.86,0-6.07-2c0-.2-.41-.62-1.24-1.25a20.56,20.56,0,0,1-3.75-8.21q-2.14-6.87-2.14-8.38v-5.36a19.09,19.09,0,0,1,.35-2v-2.5a16.38,16.38,0,0,1,.9-4.46q.66-10.14,1.6-12a20.08,20.08,0,0,0,1.25-4.64,11.53,11.53,0,0,0,1.07-3,52.88,52.88,0,0,1,3.57-8q0-.89,3.57-4.28A8.78,8.78,0,0,1,386.89,122.83ZM383,171a29.26,29.26,0,0,1,.72,5.18q1.6,5.76,3.39,7.14c0,.36.77.59,2.32.71q3.39-5.4,3.39-9.46c.36,0,.59-1.31.71-3.92.42,0,.72-1.58.9-4.64q.39,0,1.07-7.14v-1.61a14.76,14.76,0,0,0,.71-4.11v-10c-.57-.77-1-2.68-1.43-5.71q-1.87-5.9-3-5.89a1.43,1.43,0,0,1-.72-.18c-.47,0-1.19,1.31-2.14,3.93-.68,0-1.4,2.61-2.14,7.85q-.49.09-2.14,7-.72,1.38-1.61,11.24Z"/><path class="cls-1" d="M424,122.3c1.69,0,2.71,1.25,3,3.74a59.35,59.35,0,0,1,.36,7.32v1.79a20.87,20.87,0,0,1,.71,4.28q.18,19.59.18,25.17a11.79,11.79,0,0,1-.35,3q.17,3.7.17,6.07v10.89a4.92,4.92,0,0,1-3.21,4.64c0,.35-.77.65-2.32.89h-1.25a4,4,0,0,1-3.93-2.86q-.71,0-.89-14.81.18-11.32.18-17.85a28.81,28.81,0,0,0,.89-5.17q.18-10.53.18-13.39l-2,2.68c-.27,0-1.16,1-2.68,3a5.78,5.78,0,0,1-2.68,1.43,2.37,2.37,0,0,1-2.14-2.5c0-.86.83-1.87,2.5-3q0-.45,2.68-3.4l6.6-10.35c0-.65.89-1.19,2.68-1.6Z"/><path class="cls-1" d="M456.48,114.82h1.31a54.11,54.11,0,0,1,7.88,2q4.43,0,9.4,5.69,2.19,7.88,2.19,12v6.34q0,7.4-2.84,18.6a24.78,24.78,0,0,1-1.32,5.47c-.73,4.66-1.45,7.8-2.18,9.4a19.72,19.72,0,0,1-1.75,5.91c-.44.62-1.24,3-2.41,7.22q-.83,1-2.62,6.12a64.93,64.93,0,0,0-2.63,6.35c-1.93,2.33-3.54,3.5-4.81,3.5H455q-6.78,0-6.78-5.25c0-1.35.87-4.42,2.62-9.19a36.9,36.9,0,0,1,2.85-8.53c0-1,1-3.68,3.06-8.1q0-1.31,1.75-5.25l.22-1.31h-.22a8.33,8.33,0,0,1-2,.44q-5.91,0-11.38-6.78a21.48,21.48,0,0,1-4.37-10.5,33.56,33.56,0,0,0-.44-4.38v-7.22a22.65,22.65,0,0,0,1.1-5.25c.47-.51,1-2,1.53-4.37q2.46-6.51,10.06-11.81A11.41,11.41,0,0,1,456.48,114.82Zm-7.22,26.47q0,2.73,2.19,11.38,0,3.39,4.81,7c.33,0,1.71.21,4.16.65a49.81,49.81,0,0,1,1.75-5.69,21.18,21.18,0,0,1,1.09-4.15,76.22,76.22,0,0,0,.88-8.75q.21-4.32.21-11.16v-1.31q0-4.32-6.34-6.13-5.68,3-5.69,5.25-3.06,9.42-3.06,12.25Z"/><path class="cls-1" d="M189.43,242.52c-.18,2.4-.29,4.5-.34,6.33v3.82a11.42,11.42,0,0,0,.83,4.67q.51,1.17.87,1.83a.61.61,0,0,1,.13.34,1.72,1.72,0,0,1-.15.57,1.32,1.32,0,0,1-.44.44,2,2,0,0,1-1.34.61h-.21q-3.18,0-4.33-3.51a9.64,9.64,0,0,1-.62-2.89v-3.61h-.11a42.68,42.68,0,0,0-2.27,5.88,11.22,11.22,0,0,0-.93,2.28c-.76,1.3-1.58,2-2.48,2h-.82a4.56,4.56,0,0,1-3.62-1.76A6.14,6.14,0,0,1,173,257v-3.2c0-4.4.25-7.12.73-8.15a36.93,36.93,0,0,0,.62-4q.22,0,.72-2.37c1.5-3.1,3.11-4.65,4.85-4.65,0-.07.21-.1.62-.1h1.14a10.27,10.27,0,0,1,2.71.44l.13.18c.07-.43.16-1,.28-1.66v-1.23a21,21,0,0,0,.62-3.31,23.36,23.36,0,0,1,2.07-4.85c.67-1.45,1.6-2.17,2.78-2.17a1.36,1.36,0,0,1,1.24,1.45,36.34,36.34,0,0,1-.82,6.09,12.25,12.25,0,0,1-.42,2.68v2a46.29,46.29,0,0,0-.51,6A7.22,7.22,0,0,1,189.43,242.52Zm-7-5q-2.26,4.9-2.27,6.2a5,5,0,0,0-.41,2.16c-.24,0-.52,1.45-.83,4.34a20.31,20.31,0,0,0-.51,4,3.67,3.67,0,0,1-.21,1.65c.07.89.17,1.34.31,1.34.48-1.24.93-2.55,1.34-3.92l2.07-4.44a20,20,0,0,0,1.44-4,12.63,12.63,0,0,0,.62-2.58v-.52a21.38,21.38,0,0,1,.21-3.4l-.62-.93A7.86,7.86,0,0,1,182.48,237.49Z"/><path class="cls-1" d="M199.6,250.37v.13c-.12,0-.19.59-.21,1.76v1.13a13.5,13.5,0,0,0,1.14,4c0,.55.75.93,2.27,1.13a3.37,3.37,0,0,0,2.06-1.65q1.5-1.83,2.58-1.86a1.82,1.82,0,0,1,.52.08.66.66,0,0,1,.41.67c0,.64-.6,1.7-1.75,3.18a7.52,7.52,0,0,1-4.13,2.78A10.16,10.16,0,0,1,201,262h-2.22c-1.92,0-3.37-1.24-4.33-3.72a21.33,21.33,0,0,1-1-6.4,23.44,23.44,0,0,1,.42-4.64v-1.35c0-1,.75-3.42,2.27-7.12l2.27-3a10.45,10.45,0,0,1,3.46-1.14c0-.14.38-.21,1.13-.21q2.9,0,3.51,1.14c.42,0,.83,1,1.24,3.1v1.44a16.7,16.7,0,0,1-2.68,6.92,24,24,0,0,1-4.34,3ZM204.14,238a3.41,3.41,0,0,0-.41-1h-1a17.71,17.71,0,0,0-2.47,8.37,9.11,9.11,0,0,0-.36,2.17,5.3,5.3,0,0,0,2.11-1.76,7.74,7.74,0,0,0,2.17-5.26Z"/><path class="cls-1" d="M235.46,217.08h.85a34.06,34.06,0,0,1,5.14,1.28q2.88,0,6.12,3.71a32,32,0,0,1,1.43,7.84V234a51.51,51.51,0,0,1-1.85,12.12,16.42,16.42,0,0,1-.86,3.56,27.91,27.91,0,0,1-1.42,6.13,13,13,0,0,1-1.14,3.85,24.49,24.49,0,0,0-1.57,4.7,18.57,18.57,0,0,0-1.71,4,40.21,40.21,0,0,0-1.71,4.14c-1.26,1.52-2.31,2.28-3.14,2.28h-1.14q-4.43,0-4.42-3.42a24.49,24.49,0,0,1,1.71-6,24.54,24.54,0,0,1,1.86-5.56q0-1,2-5.27a11.13,11.13,0,0,1,1.14-3.43l.14-.85h-.14a5.2,5.2,0,0,1-1.28.28q-3.86,0-7.41-4.41a13.91,13.91,0,0,1-2.85-6.85,21.87,21.87,0,0,0-.29-2.85v-4.7a14.49,14.49,0,0,0,.71-3.42,7.89,7.89,0,0,0,1-2.85,17,17,0,0,1,6.56-7.7A7.16,7.16,0,0,1,235.46,217.08Zm-4.71,17.24a39.66,39.66,0,0,0,1.43,7.42c0,1.47,1,3,3.14,4.56.21,0,1.11.14,2.7.43a32.53,32.53,0,0,1,1.14-3.71,13.71,13.71,0,0,1,.72-2.71,48.9,48.9,0,0,0,.57-5.7q.13-2.82.14-7.27v-.86q0-2.8-4.13-4-3.71,1.94-3.71,3.42-2,6.14-2,8Z"/><path class="cls-1" d="M280,260.72h-.34a2.75,2.75,0,0,1-2.48-1.75,7.91,7.91,0,0,1-1.05-2.87,13.44,13.44,0,0,1-.52-3.15l-.44,1.06-1.75,3.61a6.32,6.32,0,0,1-2.13,2.57,3.91,3.91,0,0,1-1.8.64h-1.55a2.29,2.29,0,0,1-2.06-1.35q-.71,0-.93-4.44v-6.91q1.14-6.18,2.37-8.47a19.22,19.22,0,0,1,2.28-3.92,7.43,7.43,0,0,1,3.71-1.55h.93a4.25,4.25,0,0,1,3,1.6c1.31-1.55,2.49-2.33,3.56-2.33s1.55.61,1.55,1.55c0,.23-.1,1-.31,2.38a10.9,10.9,0,0,0-.31,3.2l-.21,1.29-.33,5-.08,5.29q0,.54-.18,2.07a6,6,0,0,1,.44,1.86,7.4,7.4,0,0,1,.72,3.09v.11c-.14,1-.65,1.55-1.55,1.55h-.1A1.07,1.07,0,0,1,280,260.72Zm-8.91-37.25c1.47,0,2.74,1.35,3.82,4l1.66,2.94c0,.64-.42,1-1.24,1.17h-.21c-.69,0-1.82-.79-3.41-2.35-2.54-2.29-3.82-3.68-3.82-4.18v-.26a2.06,2.06,0,0,1,2-1.35Zm-.18,33.23a3.55,3.55,0,0,1,.23-.31c1.3-2.95,2.35-5.33,3.18-7.14a13.37,13.37,0,0,0,1.32-5l.36-2.87a20.25,20.25,0,0,1,.41-3.4,2.43,2.43,0,0,0-1.6-1c-.53.07-1,.73-1.5,2q-.3,1-1.34,5a21.43,21.43,0,0,1-.62,4.85c-.21,0-.38,1.48-.52,4.44v3.1A1.09,1.09,0,0,1,270.89,256.7Z"/><path class="cls-1" d="M311.44,217.5c1.35,0,2.16,1,2.42,3a47.46,47.46,0,0,1,.29,5.84v1.43a17.73,17.73,0,0,1,.57,3.42q.13,15.65.14,20.1a9.17,9.17,0,0,1-.29,2.42c.1,2,.15,3.59.15,4.85v8.69a3.94,3.94,0,0,1-2.57,3.71c0,.28-.62.52-1.85.71h-1a3.18,3.18,0,0,1-3.14-2.28q-.57,0-.71-11.83.14-9.06.14-14.26a23.09,23.09,0,0,0,.72-4.13q.13-8.41.14-10.69l-1.57,2.14c-.21,0-.93.83-2.14,2.42a4.61,4.61,0,0,1-2.14,1.14,1.88,1.88,0,0,1-1.71-2c0-.69.67-1.5,2-2.43a11.28,11.28,0,0,1,2.14-2.71l5.27-8.26c0-.53.71-.95,2.14-1.29Z"/><path class="cls-1" d="M334.74,217.93h2.14c2.85.17,4.28.6,4.28,1.28q4.27,2.53,4.27,5a29.58,29.58,0,0,1,.72,5.85,14.3,14.3,0,0,1-.65,4q-1.89,5.31-3.49,7.09a12.17,12.17,0,0,0-1.14,2.13Q344,249.15,344,252a29.46,29.46,0,0,1,1.14,6.13c.19,0,.28.33.28,1V260a10.55,10.55,0,0,1-1.42,5.85c-1,2.51-2.31,4.13-3.85,4.84a6.36,6.36,0,0,1-4.28,1.28c-.95,0-2.09,0-3.42-.14A7.18,7.18,0,0,1,331,272a10.47,10.47,0,0,0-2.85-.56,3.18,3.18,0,0,1-2.14-2.14q-2.28-2.64-2.28-3.85l-.15-5q.08-8.84,6.85-17.49a57,57,0,0,1-3.71-5.28c-.24,0-.57-.76-1-2.28-.66-.71-1-2.28-1-4.7v-.29q0-7,6.13-11.4A20.61,20.61,0,0,1,334.74,217.93Zm-1.67,28.65-1.89,2.85a10.07,10.07,0,0,0-2.57,7c-.09,0-.14.28-.14.85v.57q0,.93-.28,5.71.74,3.42,1.71,3.42a14.79,14.79,0,0,0,1.71,1.28H332a6.11,6.11,0,0,0,3.28-1.28,16.09,16.09,0,0,0,1.86-6v-.43q-.72-6.56-1.57-8.69c-.22,0-.55-.91-1-2.71A9.77,9.77,0,0,0,333.07,246.58Zm-.75-21.66v2.42c.28.21.47,1.21.57,3a72.88,72.88,0,0,0,3.71,6.84,10.26,10.26,0,0,0,1.85,2.86,20.37,20.37,0,0,1,1.57-3.28,19.77,19.77,0,0,0,1.85-4.28v-.28a19.49,19.49,0,0,1-.57-5.28c-.17,0-.26-.47-.29-1.42v-.72q-2.34-3-3.56-3h-2.28C333.27,222.47,332.32,223.52,332.32,224.92Z"/><path class="cls-1" d="M371.55,242.45l.13.44v.25a1.61,1.61,0,0,1,.05.44,1.27,1.27,0,0,1-.07.44c-.05,1.76-.18,3.57-.39,5.45v.1h.1a30.85,30.85,0,0,1,1.14-4c1.77-4.64,3.08-7.33,3.92-8a3.9,3.9,0,0,1,1.86-2.06c0-.21.69-.49,2.07-.83h.51c1.05,0,1.77.72,2.17,2.17v9.91c0,.46,0,1-.1,1.73a.5.5,0,0,0,.05.13c-.07,1.62-.1,2.82-.1,3.61v6.2a22.72,22.72,0,0,0,.62,3.71,1.37,1.37,0,0,1-1.45,1.24,7.48,7.48,0,0,1-3.72-2.17,9.66,9.66,0,0,1-1.65-5.88c-.12,0-.19-.41-.21-1.24v-.62q0-4.33.39-4.95c.12-1.23.18-2.6.18-4.13V244l.16-2.22-.67.87a39.88,39.88,0,0,0-2.59,7,47.33,47.33,0,0,1-1.75,5.68,12.94,12.94,0,0,0-1.14,4.55,3.06,3.06,0,0,1-2.16,1.34h-.52a1.87,1.87,0,0,1-2.07-1.34,14.73,14.73,0,0,1-.92-5.06,20.81,20.81,0,0,1-.42-4.24v-3a6.05,6.05,0,0,1,.21-1,63.76,63.76,0,0,1,.93-11.15,23.43,23.43,0,0,1,.36-3.18A24.06,24.06,0,0,1,368,225.2c0-.7.75-1.63,2.27-2.78a1.71,1.71,0,0,1,.83-.21h1.23a1.28,1.28,0,0,1,1.45,1.45v.41c-.28,3.75-.65,6.16-1.14,7.23l-.1.51v.93a37.67,37.67,0,0,1-.83,8.57Q371.61,242.09,371.55,242.45Z"/><path class="cls-1" d="M391.51,250.37v.13c-.12,0-.19.59-.21,1.76v1.13a13.5,13.5,0,0,0,1.14,4c0,.55.75.93,2.27,1.13a3.37,3.37,0,0,0,2.06-1.65q1.5-1.83,2.58-1.86a1.82,1.82,0,0,1,.52.08.67.67,0,0,1,.41.67c0,.64-.6,1.7-1.75,3.18a7.52,7.52,0,0,1-4.13,2.78A10.16,10.16,0,0,1,393,262h-2.22c-1.92,0-3.37-1.24-4.33-3.72a21.33,21.33,0,0,1-1-6.4,23.44,23.44,0,0,1,.42-4.64v-1.35c0-1,.75-3.42,2.27-7.12l2.27-3a10.45,10.45,0,0,1,3.46-1.14c0-.14.38-.21,1.13-.21q2.89,0,3.51,1.14c.42,0,.83,1,1.24,3.1v1.44A16.7,16.7,0,0,1,397,247a24,24,0,0,1-4.34,3ZM396.05,238a3.41,3.41,0,0,0-.41-1h-1a17.71,17.71,0,0,0-2.47,8.37,9.11,9.11,0,0,0-.36,2.17,5.3,5.3,0,0,0,2.11-1.76,7.74,7.74,0,0,0,2.17-5.26Z"/><path class="cls-1" d="M404.49,235.3a.52.52,0,0,0,0-.18,2.11,2.11,0,0,1,2-1.45q3.4,0,3.61,2.79v.41c-.33,2.27-.7,4.51-1.13,6.71a78.09,78.09,0,0,0-.93,8.68c-.07.79-.11,1.54-.11,2.27a18.79,18.79,0,0,0,.21,2.89c.05.34.15.51.31.51,1.05-.87,2-2.94,2.79-6.19q.69-1.68,1.6-8.57c.22-1.81.42-3.33.59-4.57q1.6-4.87,3.51-5.27l1.34-.07c1.29.14,1.94.62,1.94,1.44v.62a31.19,31.19,0,0,0-.62,4.13c-.07,0-.1.14-.1.42v.31a1.58,1.58,0,0,1,.2.82,79,79,0,0,0-.72,8.78v2.89a35.19,35.19,0,0,1,.62,3.72,7.79,7.79,0,0,0,1.55,2.89v.31a1.61,1.61,0,0,1-1.76,1.34,8.19,8.19,0,0,1-3.09-1,11.47,11.47,0,0,1-3-5.63l-.8,1.65a32.78,32.78,0,0,1-1.93,3.56c-1.12,1.17-2.08,1.76-2.89,1.76h-1.55c-1.28,0-2.27-.9-3-2.69-.08-.41-.14-.81-.18-1.21a10.41,10.41,0,0,1-.59-2.3c-.17-.13-.28-.58-.31-1.34,0-1.46,0-3.25-.1-5.37.34-4.9.65-7.66.93-8.26A17.56,17.56,0,0,1,404.49,235.3Z"/><path class="cls-1" d="M435.83,243.92a.22.22,0,0,1,0-.1,2.75,2.75,0,0,1-.26-1c0-.17-.06-.35-.08-.54V241h-.1c-.08-1.05-.14-1.94-.18-2.68a2.94,2.94,0,0,0-1,1.86q-.72,1.11-1.54,6.6a30.77,30.77,0,0,1-.52,3.62v1.86a34.07,34.07,0,0,0-.41,3.82,7.34,7.34,0,0,0-.26.72l-.29,3.3c-.39.48-.85,1-1.36,1.55l-.73.1h-.82c-.38,0-1-.55-1.76-1.65-.27,0-.48-1-.62-3.1-.12,0-.19-.41-.2-1.23v-3.72c0-.1.06-.65.2-1.65l-.07-1.42c0-1,.08-2.54.2-4.45s.25-3.72.39-5.39V237.8q0-3.72.93-3.72c0-.12.48-.22,1.44-.31q.93,0,2,2.28.52,1,.54,6,1.4-5.3,2.43-6a5.2,5.2,0,0,1,3.31-2.28h1a1.2,1.2,0,0,1,.28,0l.23,0c1.43,0,2.17.66,2.22,2a10.31,10.31,0,0,1,.42,3.09v.73a7.22,7.22,0,0,1-.13,1,11.21,11.21,0,0,0,.64,2.48c.93.38,1.4.79,1.4,1.24-.16.89-.81,1.34-2,1.34a13.38,13.38,0,0,1-2.07.1Q436.6,245.42,435.83,243.92Z"/><path class="cls-1" d="M450.62,250.37v.13c-.12,0-.19.59-.21,1.76v1.13a13.5,13.5,0,0,0,1.14,4c0,.55.75.93,2.27,1.13a3.37,3.37,0,0,0,2.06-1.65q1.5-1.83,2.58-1.86a1.88,1.88,0,0,1,.52.08.66.66,0,0,1,.41.67c0,.64-.6,1.7-1.75,3.18a7.52,7.52,0,0,1-4.13,2.78,10.16,10.16,0,0,1-1.45.21h-2.22q-2.89,0-4.33-3.72a21.33,21.33,0,0,1-1-6.4,23.44,23.44,0,0,1,.42-4.64v-1.35c0-1,.75-3.42,2.27-7.12l2.27-3a10.45,10.45,0,0,1,3.46-1.14c0-.14.38-.21,1.13-.21,1.93,0,3.1.38,3.52,1.14.41,0,.82,1,1.23,3.1v1.44a16.7,16.7,0,0,1-2.68,6.92,24,24,0,0,1-4.34,3ZM455.16,238a3.41,3.41,0,0,0-.41-1h-1a17.71,17.71,0,0,0-2.47,8.37,8.89,8.89,0,0,0-.37,2.17,5.27,5.27,0,0,0,2.12-1.76,7.74,7.74,0,0,0,2.17-5.26Z"/><path class="cls-1" d="M466.75,264.23v0h.05l.62-.08c.53-.28.8-.62.8-1a7.8,7.8,0,0,0-.41-1.86,23.11,23.11,0,0,0-2.07-5.22q-3-5.74-3-6.35a16.69,16.69,0,0,1-.83-5.88l.73-4.54a14.23,14.23,0,0,1,2.78-3.82c1.59-1.17,2.65-1.76,3.2-1.76h.11c2.32,0,3.73.35,4.23,1,.52.07,1,.62,1.55,1.66a7.81,7.81,0,0,1,.72,2.68v.52a3.65,3.65,0,0,1-.93,2.58,1.49,1.49,0,0,1-.93.31c-.65,0-1.06-.45-1.24-1.35,0-.13,0-.2.11-.2l-.11-.72v-1.35a1.4,1.4,0,0,0-1.54-1.24c-1.31.62-2,1.11-2,1.45-.34,0-.51.72-.51,2.17-.07,0-.11.2-.11.62v1.55a15.64,15.64,0,0,0,1.86,6,23.13,23.13,0,0,1,1.45,3.72c.13.41.45,1.3.93,2.67a12.18,12.18,0,0,1,.72,4v2.58c0,.73-.65,1.93-2,3.62a6.43,6.43,0,0,1-2.84.88,5.61,5.61,0,0,1-.93.25h-.52c-2.13-.53-3.25-1-3.35-1.34a7.1,7.1,0,0,1-1.81-5.26c0-.8.48-1.24,1.45-1.35q.83,0,1.23,1.14a9.43,9.43,0,0,0-.1,1.14c.33,1.85,1.19,2.78,2.58,2.78Z"/></g></g></svg>